<svg viewBox="0 0 512 512" xmlns="http://www.w3.org/2000/svg" fill-rule="evenodd" clip-rule="evenodd" stroke-linejoin="round" stroke-miterlimit="2"><path d="M90.666 16h330.666C471.465 16 512 56.533 512 106.666v317.866c0 50.134-40.534 90.667-90.667 90.667H90.666C40.533 515.199 0 474.666 0 424.532V106.666C0 56.533 40.533 16 90.666 16z" fill="#49021f" fill-rule="nonzero"/><g fill="#f36" fill-rule="nonzero"><path d="M186.026 146.56v219.732c0 2.347-1.066 3.414-2.986 3.414h-41.814c-1.92 0-2.773-1.067-2.773-3.414V146.56c0-1.92 1.067-2.774 2.987-2.774h41.6c1.28-.213 2.56.64 2.773 2.134.213.213.213.426.213.64zM309.333 372.266c-15.787.213-31.574-2.987-45.867-9.6-13.44-6.187-24.533-16.427-32.213-29.013-7.894-13.014-11.734-29.227-11.734-48.64a87.617 87.617 0 0111.734-45.014c8.106-13.866 19.84-25.386 33.92-33.066 14.933-8.32 32.853-12.373 53.973-12.373 1.067 0 2.56 0 4.48.213 1.92.213 4.053.213 6.613.427v-67.414c0-1.493.64-2.346 2.134-2.346h43.306c1.067-.214 1.92.64 2.133 1.493v203.52c0 3.84.214 8.106.427 12.8.427 4.48.64 8.746.853 12.373 0 1.493-.64 2.773-2.133 3.413-11.093 4.693-22.827 8.107-34.773 10.24-10.667 1.92-21.76 2.987-32.853 2.987zm20.906-42.667v-93.866c-1.92-.427-3.84-.854-5.76-1.067-2.346-.213-4.693-.427-7.04-.427-8.32 0-16.64 1.707-24.106 5.547a47.825 47.825 0 00-18.134 15.787c-4.693 6.826-7.04 16-7.04 27.093-.213 7.467 1.067 14.933 3.627 21.973 2.133 5.76 5.333 10.88 9.6 15.147 4.053 3.84 8.96 6.827 14.507 8.533 5.76 1.92 11.733 2.774 17.706 2.774 3.2 0 6.187-.214 8.96-.427a18.166 18.166 0 007.68-1.067z"/></g></svg>